<svg width="32" height="32" viewBox="0 0 32 32" xmlns="http://www.w3.org/2000/svg">
    <defs>
        <radialGradient cx="50%" cy="50%" fx="50%" fy="50%" r="50.489%" id="i5ch12ekga">
            <stop stop-color="#0FA" offset="0%"/>
            <stop stop-color="#5F00FA" offset="100%"/>
        </radialGradient>
    </defs>
    <g fill-rule="nonzero" fill="none">
        <circle fill="url(#i5ch12ekga)" cx="16" cy="16" r="16"/>
        <path d="m20.027 16.114 7.1 3.37c.134.064.068.265-.077.238l-7.725-1.447a.126.126 0 0 0-.134.185l3.763 6.9c.071.13-.1.254-.202.147l-5.399-5.712a.126.126 0 0 0-.216.07l-1.012 7.794c-.019.147-.23.147-.25 0l-1.011-7.794a.126.126 0 0 0-.217-.07l-5.399 5.711c-.101.107-.273-.017-.202-.147l3.763-6.9a.126.126 0 0 0-.134-.184L4.95 19.722c-.145.027-.21-.175-.077-.238l7.1-3.37a.126.126 0 0 0 0-.228l-7.1-3.37c-.134-.064-.068-.265.077-.238l7.725 1.447a.126.126 0 0 0 .134-.185l-3.764-6.9c-.07-.13.101-.254.202-.147l5.4 5.712a.126.126 0 0 0 .216-.07l1.012-7.795c.019-.146.23-.146.25 0l1.011 7.794a.126.126 0 0 0 .217.07l5.399-5.71c.101-.107.273.017.202.147l-3.763 6.9c-.05.093.03.204.134.184l7.725-1.447c.145-.027.21.175.077.238l-7.1 3.37a.126.126 0 0 0 0 .228z" fill="#FFF"/>
    </g>
</svg>
